<mxfile host="65bd71144e">
    <diagram id="sx23OyOSL30-2_I1Kx4o" name="Page-1">
        <mxGraphModel dx="1232" dy="713" grid="1" gridSize="10" guides="1" tooltips="1" connect="1" arrows="1" fold="1" page="1" pageScale="1" pageWidth="1100" pageHeight="850" math="0" shadow="0">
            <root>
                <mxCell id="0"/>
                <mxCell id="1" parent="0"/>
                <mxCell id="2" value="" style="aspect=fixed;html=1;points=[];align=center;image;fontSize=12;image=img/lib/azure2/integration/API_Management_Services.svg;" parent="1" vertex="1">
                    <mxGeometry x="450.5" y="60" width="65" height="60" as="geometry"/>
                </mxCell>
                <mxCell id="3" value="" style="aspect=fixed;html=1;points=[];align=center;image;fontSize=12;image=img/lib/azure2/integration/API_Management_Services.svg;" parent="1" vertex="1">
                    <mxGeometry x="450.5" y="150" width="65" height="60" as="geometry"/>
                </mxCell>
                <mxCell id="4" value="" style="aspect=fixed;html=1;points=[];align=center;image;fontSize=12;image=img/lib/azure2/integration/API_Management_Services.svg;" parent="1" vertex="1">
                    <mxGeometry x="450.5" y="265" width="65" height="60" as="geometry"/>
                </mxCell>
                <mxCell id="6" style="edgeStyle=none;html=1;" parent="1" source="5" edge="1">
                    <mxGeometry relative="1" as="geometry">
                        <mxPoint x="440.5" y="192" as="targetPoint"/>
                    </mxGeometry>
                </mxCell>
                <mxCell id="5" value="" style="aspect=fixed;html=1;points=[];align=center;image;fontSize=12;image=img/lib/azure2/networking/Application_Gateways.svg;" parent="1" vertex="1">
                    <mxGeometry x="250.5" y="160" width="64" height="64" as="geometry"/>
                </mxCell>
                <mxCell id="7" style="edgeStyle=none;html=1;entryX=-0.022;entryY=0.326;entryDx=0;entryDy=0;entryPerimeter=0;" parent="1" target="4" edge="1">
                    <mxGeometry relative="1" as="geometry">
                        <mxPoint x="416.5" y="220" as="targetPoint"/>
                        <mxPoint x="320.5" y="200" as="sourcePoint"/>
                    </mxGeometry>
                </mxCell>
                <mxCell id="8" style="edgeStyle=none;html=1;" parent="1" edge="1">
                    <mxGeometry relative="1" as="geometry">
                        <mxPoint x="440.5" y="100" as="targetPoint"/>
                        <mxPoint x="320.5" y="180" as="sourcePoint"/>
                    </mxGeometry>
                </mxCell>
                <mxCell id="9" style="edgeStyle=none;html=1;" parent="1" edge="1">
                    <mxGeometry relative="1" as="geometry">
                        <mxPoint x="236.5" y="191.5" as="targetPoint"/>
                        <mxPoint x="50.5" y="192" as="sourcePoint"/>
                    </mxGeometry>
                </mxCell>
                <mxCell id="10" value="" style="aspect=fixed;html=1;points=[];align=center;image;fontSize=12;image=img/lib/azure2/networking/Front_Doors.svg;" parent="1" vertex="1">
                    <mxGeometry x="246.5" y="255" width="68" height="60" as="geometry"/>
                </mxCell>
                <mxCell id="11" value="OR" style="text;html=1;align=center;verticalAlign=middle;resizable=0;points=[];autosize=1;strokeColor=none;fillColor=none;" parent="1" vertex="1">
                    <mxGeometry x="260.5" y="225" width="40" height="30" as="geometry"/>
                </mxCell>
                <mxCell id="12" value="" style="aspect=fixed;html=1;points=[];align=center;image;fontSize=12;image=img/lib/azure2/app_services/App_Services.svg;" parent="1" vertex="1">
                    <mxGeometry x="660.5" y="80" width="34" height="34" as="geometry"/>
                </mxCell>
                <mxCell id="13" value="" style="aspect=fixed;html=1;points=[];align=center;image;fontSize=12;image=img/lib/azure2/app_services/App_Services.svg;" parent="1" vertex="1">
                    <mxGeometry x="660.5" y="40" width="34" height="34" as="geometry"/>
                </mxCell>
                <mxCell id="14" value="" style="aspect=fixed;html=1;points=[];align=center;image;fontSize=12;image=img/lib/azure2/app_services/App_Services.svg;" parent="1" vertex="1">
                    <mxGeometry x="660.5" y="163" width="34" height="34" as="geometry"/>
                </mxCell>
                <mxCell id="15" value="" style="aspect=fixed;html=1;points=[];align=center;image;fontSize=12;image=img/lib/azure2/app_services/App_Services.svg;" parent="1" vertex="1">
                    <mxGeometry x="660.5" y="278" width="34" height="34" as="geometry"/>
                </mxCell>
                <mxCell id="16" style="edgeStyle=none;html=1;" parent="1" edge="1">
                    <mxGeometry relative="1" as="geometry">
                        <mxPoint x="640.5" y="80" as="targetPoint"/>
                        <mxPoint x="530.5" y="80" as="sourcePoint"/>
                    </mxGeometry>
                </mxCell>
                <mxCell id="17" style="edgeStyle=none;html=1;" parent="1" edge="1">
                    <mxGeometry relative="1" as="geometry">
                        <mxPoint x="640.5" y="179.5" as="targetPoint"/>
                        <mxPoint x="530.5" y="179.5" as="sourcePoint"/>
                    </mxGeometry>
                </mxCell>
                <mxCell id="18" style="edgeStyle=none;html=1;" parent="1" edge="1">
                    <mxGeometry relative="1" as="geometry">
                        <mxPoint x="640.5" y="295" as="targetPoint"/>
                        <mxPoint x="530.5" y="295" as="sourcePoint"/>
                    </mxGeometry>
                </mxCell>
                <mxCell id="19" value="" style="aspect=fixed;html=1;points=[];align=center;image;fontSize=12;image=img/lib/azure2/integration/API_Management_Services.svg;" parent="1" vertex="1">
                    <mxGeometry x="390" y="1255" width="65" height="60" as="geometry"/>
                </mxCell>
                <mxCell id="20" value="" style="aspect=fixed;html=1;points=[];align=center;image;fontSize=12;image=img/lib/azure2/integration/API_Management_Services.svg;" parent="1" vertex="1">
                    <mxGeometry x="500" y="1255" width="65" height="60" as="geometry"/>
                </mxCell>
                <mxCell id="21" value="" style="aspect=fixed;html=1;points=[];align=center;image;fontSize=12;image=img/lib/azure2/integration/API_Management_Services.svg;" parent="1" vertex="1">
                    <mxGeometry x="615.5" y="1256" width="65" height="60" as="geometry"/>
                </mxCell>
                <mxCell id="23" value="" style="aspect=fixed;html=1;points=[];align=center;image;fontSize=12;image=img/lib/azure2/networking/Application_Gateways.svg;" parent="1" vertex="1">
                    <mxGeometry x="440" y="1101" width="64" height="64" as="geometry"/>
                </mxCell>
                <mxCell id="25" style="edgeStyle=none;html=1;" parent="1" edge="1">
                    <mxGeometry relative="1" as="geometry">
                        <mxPoint x="430" y="1245" as="targetPoint"/>
                        <mxPoint x="500" y="1175" as="sourcePoint"/>
                    </mxGeometry>
                </mxCell>
                <mxCell id="26" style="edgeStyle=none;html=1;" parent="1" edge="1">
                    <mxGeometry relative="1" as="geometry">
                        <mxPoint x="530" y="1095" as="targetPoint"/>
                        <mxPoint x="530" y="985" as="sourcePoint"/>
                    </mxGeometry>
                </mxCell>
                <mxCell id="27" value="" style="aspect=fixed;html=1;points=[];align=center;image;fontSize=12;image=img/lib/azure2/networking/Front_Doors.svg;" parent="1" vertex="1">
                    <mxGeometry x="550" y="1103" width="68" height="60" as="geometry"/>
                </mxCell>
                <mxCell id="28" value="OR" style="text;html=1;align=center;verticalAlign=middle;resizable=0;points=[];autosize=1;strokeColor=none;fillColor=none;" parent="1" vertex="1">
                    <mxGeometry x="504" y="1118" width="40" height="30" as="geometry"/>
                </mxCell>
                <mxCell id="29" value="" style="aspect=fixed;html=1;points=[];align=center;image;fontSize=12;image=img/lib/azure2/app_services/App_Services.svg;" parent="1" vertex="1">
                    <mxGeometry x="421" y="1410" width="34" height="34" as="geometry"/>
                </mxCell>
                <mxCell id="30" value="" style="aspect=fixed;html=1;points=[];align=center;image;fontSize=12;image=img/lib/azure2/app_services/App_Services.svg;" parent="1" vertex="1">
                    <mxGeometry x="370" y="1410" width="34" height="34" as="geometry"/>
                </mxCell>
                <mxCell id="31" value="" style="aspect=fixed;html=1;points=[];align=center;image;fontSize=12;image=img/lib/azure2/app_services/App_Services.svg;" parent="1" vertex="1">
                    <mxGeometry x="515.5" y="1410" width="34" height="34" as="geometry"/>
                </mxCell>
                <mxCell id="32" value="" style="aspect=fixed;html=1;points=[];align=center;image;fontSize=12;image=img/lib/azure2/app_services/App_Services.svg;" parent="1" vertex="1">
                    <mxGeometry x="633.5" y="1410" width="34" height="34" as="geometry"/>
                </mxCell>
                <mxCell id="33" style="edgeStyle=none;html=1;" parent="1" edge="1">
                    <mxGeometry relative="1" as="geometry">
                        <mxPoint x="390" y="1400" as="targetPoint"/>
                        <mxPoint x="410" y="1325" as="sourcePoint"/>
                    </mxGeometry>
                </mxCell>
                <mxCell id="36" style="edgeStyle=none;html=1;" parent="1" edge="1">
                    <mxGeometry relative="1" as="geometry">
                        <mxPoint x="530" y="1245" as="targetPoint"/>
                        <mxPoint x="530" y="1185" as="sourcePoint"/>
                    </mxGeometry>
                </mxCell>
                <mxCell id="38" style="edgeStyle=none;html=1;entryX=0.031;entryY=0.15;entryDx=0;entryDy=0;entryPerimeter=0;" parent="1" target="21" edge="1">
                    <mxGeometry relative="1" as="geometry">
                        <mxPoint x="640" y="1245" as="targetPoint"/>
                        <mxPoint x="560" y="1175" as="sourcePoint"/>
                    </mxGeometry>
                </mxCell>
                <mxCell id="39" style="edgeStyle=none;html=1;" parent="1" edge="1">
                    <mxGeometry relative="1" as="geometry">
                        <mxPoint x="440" y="1400" as="targetPoint"/>
                        <mxPoint x="430" y="1325" as="sourcePoint"/>
                    </mxGeometry>
                </mxCell>
                <mxCell id="41" style="edgeStyle=none;html=1;" parent="1" edge="1">
                    <mxGeometry relative="1" as="geometry">
                        <mxPoint x="530" y="1400" as="targetPoint"/>
                        <mxPoint x="530" y="1370" as="sourcePoint"/>
                    </mxGeometry>
                </mxCell>
                <mxCell id="42" style="edgeStyle=none;html=1;" parent="1" edge="1">
                    <mxGeometry relative="1" as="geometry">
                        <mxPoint x="650" y="1400" as="targetPoint"/>
                        <mxPoint x="650" y="1327" as="sourcePoint"/>
                    </mxGeometry>
                </mxCell>
                <mxCell id="43" value="" style="aspect=fixed;html=1;points=[];align=center;image;fontSize=12;image=img/lib/azure2/integration/API_Management_Services.svg;" parent="1" vertex="1">
                    <mxGeometry x="790.5" y="1265" width="65" height="60" as="geometry"/>
                </mxCell>
                <mxCell id="44" value="" style="aspect=fixed;html=1;points=[];align=center;image;fontSize=12;image=img/lib/azure2/integration/API_Management_Services.svg;" parent="1" vertex="1">
                    <mxGeometry x="900.5" y="1265" width="65" height="60" as="geometry"/>
                </mxCell>
                <mxCell id="45" value="" style="aspect=fixed;html=1;points=[];align=center;image;fontSize=12;image=img/lib/azure2/integration/API_Management_Services.svg;" parent="1" vertex="1">
                    <mxGeometry x="1003" y="1265" width="65" height="60" as="geometry"/>
                </mxCell>
                <mxCell id="46" value="" style="aspect=fixed;html=1;points=[];align=center;image;fontSize=12;image=img/lib/azure2/networking/Application_Gateways.svg;" parent="1" vertex="1">
                    <mxGeometry x="840.5" y="1111" width="64" height="64" as="geometry"/>
                </mxCell>
                <mxCell id="47" style="edgeStyle=none;html=1;" parent="1" edge="1">
                    <mxGeometry relative="1" as="geometry">
                        <mxPoint x="830.5" y="1255" as="targetPoint"/>
                        <mxPoint x="900.5" y="1185" as="sourcePoint"/>
                    </mxGeometry>
                </mxCell>
                <mxCell id="48" style="edgeStyle=none;html=1;" parent="1" edge="1">
                    <mxGeometry relative="1" as="geometry">
                        <mxPoint x="930.5" y="1105" as="targetPoint"/>
                        <mxPoint x="930.5" y="995" as="sourcePoint"/>
                    </mxGeometry>
                </mxCell>
                <mxCell id="49" value="" style="aspect=fixed;html=1;points=[];align=center;image;fontSize=12;image=img/lib/azure2/networking/Front_Doors.svg;" parent="1" vertex="1">
                    <mxGeometry x="950.5" y="1113" width="68" height="60" as="geometry"/>
                </mxCell>
                <mxCell id="50" value="OR" style="text;html=1;align=center;verticalAlign=middle;resizable=0;points=[];autosize=1;strokeColor=none;fillColor=none;" parent="1" vertex="1">
                    <mxGeometry x="904.5" y="1128" width="40" height="30" as="geometry"/>
                </mxCell>
                <mxCell id="51" value="" style="aspect=fixed;html=1;points=[];align=center;image;fontSize=12;image=img/lib/azure2/app_services/App_Services.svg;" parent="1" vertex="1">
                    <mxGeometry x="821.5" y="1420" width="34" height="34" as="geometry"/>
                </mxCell>
                <mxCell id="52" value="" style="aspect=fixed;html=1;points=[];align=center;image;fontSize=12;image=img/lib/azure2/app_services/App_Services.svg;" parent="1" vertex="1">
                    <mxGeometry x="770.5" y="1420" width="34" height="34" as="geometry"/>
                </mxCell>
                <mxCell id="53" value="" style="aspect=fixed;html=1;points=[];align=center;image;fontSize=12;image=img/lib/azure2/app_services/App_Services.svg;" parent="1" vertex="1">
                    <mxGeometry x="916" y="1420" width="34" height="34" as="geometry"/>
                </mxCell>
                <mxCell id="54" value="" style="aspect=fixed;html=1;points=[];align=center;image;fontSize=12;image=img/lib/azure2/app_services/App_Services.svg;" parent="1" vertex="1">
                    <mxGeometry x="1034" y="1420" width="34" height="34" as="geometry"/>
                </mxCell>
                <mxCell id="55" style="edgeStyle=none;html=1;" parent="1" edge="1">
                    <mxGeometry relative="1" as="geometry">
                        <mxPoint x="780" y="1410" as="targetPoint"/>
                        <mxPoint x="810.5" y="1335" as="sourcePoint"/>
                    </mxGeometry>
                </mxCell>
                <mxCell id="56" style="edgeStyle=none;html=1;" parent="1" edge="1">
                    <mxGeometry relative="1" as="geometry">
                        <mxPoint x="930.5" y="1255" as="targetPoint"/>
                        <mxPoint x="930.5" y="1195" as="sourcePoint"/>
                    </mxGeometry>
                </mxCell>
                <mxCell id="57" style="edgeStyle=none;html=1;entryX=0.031;entryY=0.15;entryDx=0;entryDy=0;entryPerimeter=0;" parent="1" target="45" edge="1">
                    <mxGeometry relative="1" as="geometry">
                        <mxPoint x="1040.5" y="1255" as="targetPoint"/>
                        <mxPoint x="960.5" y="1185" as="sourcePoint"/>
                    </mxGeometry>
                </mxCell>
                <mxCell id="58" style="edgeStyle=none;html=1;" parent="1" edge="1">
                    <mxGeometry relative="1" as="geometry">
                        <mxPoint x="841" y="1410" as="targetPoint"/>
                        <mxPoint x="830.5" y="1335" as="sourcePoint"/>
                    </mxGeometry>
                </mxCell>
                <mxCell id="59" style="edgeStyle=none;html=1;" parent="1" edge="1">
                    <mxGeometry relative="1" as="geometry">
                        <mxPoint x="931" y="1410" as="targetPoint"/>
                        <mxPoint x="931" y="1370" as="sourcePoint"/>
                    </mxGeometry>
                </mxCell>
                <mxCell id="60" style="edgeStyle=none;html=1;" parent="1" edge="1">
                    <mxGeometry relative="1" as="geometry">
                        <mxPoint x="1051" y="1410" as="targetPoint"/>
                        <mxPoint x="1050.5" y="1337" as="sourcePoint"/>
                    </mxGeometry>
                </mxCell>
                <mxCell id="61" value="&lt;h2&gt;Primary Region&lt;/h2&gt;" style="text;html=1;align=center;verticalAlign=middle;resizable=0;points=[];autosize=1;strokeColor=none;fillColor=none;" parent="1" vertex="1">
                    <mxGeometry x="455.5" y="930" width="160" height="60" as="geometry"/>
                </mxCell>
                <mxCell id="62" value="&lt;h2 style=&quot;border-color: var(--border-color); color: rgb(0, 0, 0); font-family: Helvetica; font-style: normal; font-variant-ligatures: normal; font-variant-caps: normal; letter-spacing: normal; orphans: 2; text-align: center; text-indent: 0px; text-transform: none; widows: 2; word-spacing: 0px; -webkit-text-stroke-width: 0px; background-color: rgb(251, 251, 251); text-decoration-thickness: initial; text-decoration-style: initial; text-decoration-color: initial;&quot;&gt;Secondary Region&lt;/h2&gt;" style="text;whiteSpace=wrap;html=1;" parent="1" vertex="1">
                    <mxGeometry x="860.5" y="930" width="160" height="70" as="geometry"/>
                </mxCell>
                <mxCell id="64" value="" style="aspect=fixed;html=1;points=[];align=center;image;fontSize=12;image=img/lib/azure2/integration/API_Management_Services.svg;" parent="1" vertex="1">
                    <mxGeometry x="74.5" y="1256" width="65" height="60" as="geometry"/>
                </mxCell>
                <mxCell id="66" value="" style="aspect=fixed;html=1;points=[];align=center;image;fontSize=12;image=img/lib/azure2/networking/Application_Gateways.svg;" parent="1" vertex="1">
                    <mxGeometry x="74.5" y="1094" width="64" height="64" as="geometry"/>
                </mxCell>
                <mxCell id="68" style="edgeStyle=none;html=1;" parent="1" edge="1">
                    <mxGeometry relative="1" as="geometry">
                        <mxPoint x="104.5" y="1080" as="targetPoint"/>
                        <mxPoint x="104.5" y="985" as="sourcePoint"/>
                    </mxGeometry>
                </mxCell>
                <mxCell id="73" value="" style="aspect=fixed;html=1;points=[];align=center;image;fontSize=12;image=img/lib/azure2/app_services/App_Services.svg;" parent="1" vertex="1">
                    <mxGeometry x="90" y="1387" width="34" height="34" as="geometry"/>
                </mxCell>
                <mxCell id="76" style="edgeStyle=none;html=1;" parent="1" edge="1">
                    <mxGeometry relative="1" as="geometry">
                        <mxPoint x="105.83000000000001" y="1225" as="targetPoint"/>
                        <mxPoint x="105.83000000000001" y="1165" as="sourcePoint"/>
                    </mxGeometry>
                </mxCell>
                <mxCell id="79" style="edgeStyle=none;html=1;" parent="1" edge="1">
                    <mxGeometry relative="1" as="geometry">
                        <mxPoint x="104.5" y="1385" as="targetPoint"/>
                        <mxPoint x="104.5" y="1325" as="sourcePoint"/>
                    </mxGeometry>
                </mxCell>
                <mxCell id="81" value="&lt;h2&gt;Single Region&amp;nbsp;&lt;/h2&gt;&lt;h2&gt;&lt;font style=&quot;font-size: 14px;&quot;&gt;(Current)&lt;/font&gt;&lt;/h2&gt;" style="text;html=1;align=center;verticalAlign=middle;resizable=0;points=[];autosize=1;strokeColor=none;fillColor=none;" parent="1" vertex="1">
                    <mxGeometry x="40" y="900" width="150" height="100" as="geometry"/>
                </mxCell>
                <mxCell id="82" value="" style="aspect=fixed;html=1;points=[];align=center;image;fontSize=12;image=img/lib/azure2/app_services/App_Services.svg;" parent="1" vertex="1">
                    <mxGeometry x="40" y="1387" width="34.5" height="34.5" as="geometry"/>
                </mxCell>
                <mxCell id="83" value="" style="aspect=fixed;html=1;points=[];align=center;image;fontSize=12;image=img/lib/azure2/app_services/App_Services.svg;" parent="1" vertex="1">
                    <mxGeometry x="40.5" y="1431" width="34" height="34" as="geometry"/>
                </mxCell>
                <mxCell id="84" value="" style="aspect=fixed;html=1;points=[];align=center;image;fontSize=12;image=img/lib/azure2/app_services/App_Services.svg;" parent="1" vertex="1">
                    <mxGeometry x="89.5" y="1431" width="34" height="34" as="geometry"/>
                </mxCell>
                <mxCell id="85" value="" style="aspect=fixed;html=1;points=[];align=center;image;fontSize=12;image=img/lib/azure2/app_services/App_Services.svg;" parent="1" vertex="1">
                    <mxGeometry x="146" y="1387" width="34" height="34" as="geometry"/>
                </mxCell>
                <mxCell id="86" value="" style="aspect=fixed;html=1;points=[];align=center;image;fontSize=12;image=img/lib/azure2/app_services/App_Services.svg;" parent="1" vertex="1">
                    <mxGeometry x="146" y="1431" width="34" height="34" as="geometry"/>
                </mxCell>
                <mxCell id="87" value="&lt;b&gt;1000+ APIs&lt;/b&gt;" style="text;html=1;align=center;verticalAlign=middle;resizable=0;points=[];autosize=1;strokeColor=none;fillColor=none;" parent="1" vertex="1">
                    <mxGeometry x="56" y="1470" width="90" height="30" as="geometry"/>
                </mxCell>
                <mxCell id="88" style="edgeStyle=none;html=1;shape=flexArrow;fillColor=#000000;" parent="1" edge="1">
                    <mxGeometry relative="1" as="geometry">
                        <mxPoint x="290" y="1245" as="targetPoint"/>
                        <mxPoint x="209.9999999999999" y="1245" as="sourcePoint"/>
                    </mxGeometry>
                </mxCell>
                <mxCell id="89" value="Regional Application Gateway&lt;br&gt;" style="aspect=fixed;html=1;points=[];align=center;image;fontSize=12;image=img/lib/azure2/networking/Application_Gateways.svg;" parent="1" vertex="1">
                    <mxGeometry x="980" y="1570" width="24" height="24" as="geometry"/>
                </mxCell>
                <mxCell id="90" value="Global Front Door&lt;br&gt;" style="aspect=fixed;html=1;points=[];align=center;image;fontSize=12;image=img/lib/azure2/networking/Front_Doors.svg;" parent="1" vertex="1">
                    <mxGeometry x="980" y="1630" width="24.94" height="22" as="geometry"/>
                </mxCell>
                <mxCell id="91" value="API Management Instance" style="aspect=fixed;html=1;points=[];align=center;image;fontSize=12;image=img/lib/azure2/integration/API_Management_Services.svg;" parent="1" vertex="1">
                    <mxGeometry x="980" y="1520" width="26" height="24" as="geometry"/>
                </mxCell>
                <mxCell id="92" value="&lt;div&gt;&lt;b&gt;Limitations&lt;/b&gt;&lt;/div&gt;&lt;ul&gt;&lt;li&gt;&lt;b&gt;Subscription/ RG Limitations&lt;br&gt;&lt;/b&gt;&lt;/li&gt;&lt;li&gt;&lt;b&gt;APIM Capacity limitations&lt;/b&gt;&lt;/li&gt;&lt;li&gt;&lt;b&gt;Single Point of failure&lt;/b&gt;&lt;/li&gt;&lt;/ul&gt;" style="text;html=1;align=left;verticalAlign=middle;resizable=0;points=[];autosize=1;strokeColor=none;fillColor=none;fontSize=14;" parent="1" vertex="1">
                    <mxGeometry x="10.5" y="1522" width="260" height="130" as="geometry"/>
                </mxCell>
                <mxCell id="93" value="&lt;div&gt;&lt;b&gt;Approach&lt;/b&gt;&lt;/div&gt;&lt;ul&gt;&lt;li&gt;&lt;b&gt;APIM Instances can be in different subscriptions (If needed)&lt;/b&gt;&lt;/li&gt;&lt;li&gt;&lt;b&gt;APIs are grouped and assigned based on popularity, ownership or specs&lt;/b&gt;&lt;/li&gt;&lt;li&gt;&lt;b&gt;A DR region with geo-replicated gateways for each APIM&lt;/b&gt;&lt;/li&gt;&lt;li&gt;&lt;b&gt;Internal dev teams know which instance where their APIs are *&lt;/b&gt;&lt;/li&gt;&lt;/ul&gt;" style="text;html=1;align=left;verticalAlign=middle;resizable=0;points=[];autosize=1;strokeColor=none;fillColor=none;fontSize=14;" parent="1" vertex="1">
                    <mxGeometry x="330" y="1512" width="550" height="150" as="geometry"/>
                </mxCell>
                <mxCell id="94" value="&lt;b&gt;Geo-replications&lt;/b&gt;" style="text;html=1;align=center;verticalAlign=middle;resizable=0;points=[];autosize=1;strokeColor=none;fillColor=none;fontSize=14;" parent="1" vertex="1">
                    <mxGeometry x="868" y="1325" width="130" height="30" as="geometry"/>
                </mxCell>
                <mxCell id="95" value="&lt;b&gt;&lt;font style=&quot;font-size: 24px;&quot;&gt;MULTI-APIM DEPLOYMENT APPROACH&lt;/font&gt;&lt;/b&gt;" style="text;html=1;align=center;verticalAlign=middle;resizable=0;points=[];autosize=1;strokeColor=none;fillColor=none;fontSize=14;" parent="1" vertex="1">
                    <mxGeometry x="260.5" y="850" width="480" height="40" as="geometry"/>
                </mxCell>
                <mxCell id="96" value="&lt;span style=&quot;font-size: 12px;&quot;&gt;&lt;b&gt;Business Unit APIs&lt;/b&gt;&lt;/span&gt;" style="text;html=1;align=center;verticalAlign=middle;resizable=0;points=[];autosize=1;strokeColor=none;fillColor=none;fontSize=24;" parent="1" vertex="1">
                    <mxGeometry x="335.5" y="1454" width="130" height="40" as="geometry"/>
                </mxCell>
                <mxCell id="97" value="&lt;b&gt;Primary Gateways&lt;/b&gt;" style="text;html=1;align=center;verticalAlign=middle;resizable=0;points=[];autosize=1;strokeColor=none;fillColor=none;fontSize=14;" parent="1" vertex="1">
                    <mxGeometry x="465.5" y="1325" width="140" height="30" as="geometry"/>
                </mxCell>
                <mxCell id="98" value="&lt;span style=&quot;font-size: 12px;&quot;&gt;&lt;b&gt;Dept APIs&lt;/b&gt;&lt;/span&gt;" style="text;html=1;align=center;verticalAlign=middle;resizable=0;points=[];autosize=1;strokeColor=none;fillColor=none;fontSize=24;" vertex="1" parent="1">
                    <mxGeometry x="495.5" y="1454" width="80" height="40" as="geometry"/>
                </mxCell>
                <mxCell id="99" value="&lt;span style=&quot;font-size: 12px;&quot;&gt;&lt;b&gt;Product APIs&lt;/b&gt;&lt;/span&gt;" style="text;html=1;align=center;verticalAlign=middle;resizable=0;points=[];autosize=1;strokeColor=none;fillColor=none;fontSize=24;" vertex="1" parent="1">
                    <mxGeometry x="598" y="1454" width="100" height="40" as="geometry"/>
                </mxCell>
            </root>
        </mxGraphModel>
    </diagram>
</mxfile>